<?xml version="1.0" standalone="no"?>
<!DOCTYPE svg PUBLIC "-//W3C//DTD SVG 20010904//EN"
 "http://www.w3.org/TR/2001/REC-SVG-20010904/DTD/svg10.dtd">
<svg version="1.0" xmlns="http://www.w3.org/2000/svg"
 width="5000.000000pt" height="5000.000000pt" viewBox="0 0 5000.000000 5000.000000"
 preserveAspectRatio="xMidYMid meet">
<metadata>
Created by potrace 1.14, written by Peter Selinger 2001-2017
</metadata>
<g transform="translate(0.000000,5000.000000) scale(0.100000,-0.100000)"
fill="#000000" stroke="none">
<path d="M24340 43800 c-639 -236 -1462 -539 -3245 -1195 -577 -212 -1097
-403 -1155 -425 -58 -21 -600 -221 -1205 -443 -605 -223 -1509 -556 -2010
-740 -500 -184 -1200 -442 -1555 -572 -355 -130 -1223 -450 -1930 -710 -707
-260 -1721 -634 -2255 -830 -1494 -549 -2615 -962 -3710 -1365 -550 -203
-1110 -409 -1245 -458 -135 -50 -767 -282 -1405 -517 -638 -235 -1311 -482
-1495 -550 -648 -238 -1775 -654 -1793 -660 -16 -7 -17 -461 -17 -9341 l0
-9334 23680 0 23680 0 -2 9336 -3 9336 -365 134 c-201 74 -462 170 -580 213
-290 107 -1244 457 -2210 811 -437 161 -885 325 -995 365 -110 40 -515 189
-900 330 -385 142 -765 281 -845 310 -80 29 -460 168 -845 310 -385 141 -765
281 -845 310 -80 29 -662 243 -1295 475 -632 232 -1258 462 -1390 510 -132 48
-400 146 -595 218 -900 331 -1958 719 -2090 767 -80 29 -307 112 -505 185
-986 362 -2125 780 -2930 1075 -385 141 -968 355 -1295 475 -327 120 -910 334
-1295 475 -385 142 -833 306 -995 365 -162 60 -450 165 -640 235 -787 289
-1807 663 -2440 895 -272 99 -530 194 -573 210 -43 17 -82 30 -85 29 -4 -1
-284 -103 -622 -229z m966 -731 c181 -66 419 -154 529 -194 110 -40 558 -204
995 -365 437 -161 860 -316 940 -345 80 -29 663 -243 1295 -475 633 -232 1240
-455 1350 -495 110 -40 490 -180 845 -310 355 -131 710 -261 790 -290 80 -29
325 -119 545 -200 220 -81 465 -171 545 -200 80 -29 417 -153 750 -275 333
-122 670 -246 750 -275 80 -29 663 -243 1295 -475 633 -232 1215 -446 1295
-475 156 -57 708 -259 1335 -490 215 -79 620 -227 900 -330 1135 -416 1968
-722 2590 -950 220 -81 465 -171 545 -200 80 -29 595 -218 1145 -420 1265
-464 2911 -1068 3607 -1323 l538 -197 0 -8672 0 -8673 -22890 0 -22890 0 0
8673 0 8672 203 74 c111 40 695 254 1297 476 602 222 1489 548 1970 725 481
177 1240 456 1685 620 446 164 1357 499 2025 745 668 246 1427 525 1685 620
662 244 2409 887 3660 1346 583 215 1125 414 1205 444 80 30 514 190 965 355
451 166 1185 436 1630 600 446 164 1247 459 1780 655 534 196 1011 371 1060
390 50 18 576 212 1170 430 594 219 1400 516 1790 660 391 145 717 263 726
264 9 1 164 -53 345 -120z"/>
<path d="M3730 26445 l0 -7345 395 0 395 0 -2 6635 c-3 6122 -2 6633 13 6617
9 -9 99 -116 201 -237 101 -121 677 -807 1279 -1525 602 -718 1378 -1642 1724
-2055 346 -412 722 -860 835 -995 113 -135 665 -792 1225 -1460 561 -668 1276
-1521 1590 -1895 936 -1115 1526 -1819 2164 -2580 332 -396 607 -723 611 -728
3 -4 76 73 161 170 85 98 384 441 665 763 280 322 923 1060 1429 1640 506 580
1268 1456 1695 1945 427 490 1203 1381 1726 1980 522 600 1062 1218 1198 1375
137 157 454 521 706 810 251 289 860 987 1351 1551 492 564 946 1085 1009
1158 l115 132 3 -6651 2 -6650 390 0 390 0 0 7345 0 7345 -308 0 -308 0 -625
-717 c-344 -395 -1284 -1474 -2089 -2398 -2875 -3299 -3978 -4565 -4885 -5605
-505 -580 -1009 -1158 -1120 -1285 -110 -126 -490 -562 -844 -968 -354 -406
-647 -735 -651 -730 -4 4 -335 400 -737 878 -401 479 -850 1014 -997 1190
-148 176 -556 662 -907 1080 -350 418 -924 1102 -1275 1520 -351 418 -1365
1626 -2253 2685 -888 1059 -1694 2019 -1791 2134 -436 520 -962 1148 -1390
1659 l-465 556 -312 0 -313 1 0 -7345z"/>
<path d="M42719 31959 c-1460 -1007 -2985 -2060 -3389 -2339 -404 -279 -1412
-974 -2240 -1545 -828 -571 -1546 -1066 -1596 -1101 l-90 -63 -665 461 c-1998
1386 -3096 2147 -3529 2448 -450 312 -3260 2261 -4539 3148 -306 212 -587 407
-626 434 l-70 49 -3 -468 c-1 -257 0 -473 2 -479 2 -6 238 -173 523 -371 579
-402 3106 -2155 4863 -3373 338 -235 896 -622 1240 -860 344 -238 933 -647
1310 -908 862 -598 801 -555 793 -563 -10 -8 -106 -75 -2048 -1414 -836 -577
-1644 -1134 -1796 -1239 -152 -105 -1314 -906 -2582 -1781 l-2306 -1590 -1
-478 0 -478 28 19 c15 10 578 399 1252 864 1155 797 3336 2301 4445 3066 275
190 723 499 995 687 272 188 860 593 1305 900 446 308 945 652 1109 766 l300
206 130 -92 c161 -112 258 -179 2271 -1575 891 -618 1897 -1315 2235 -1550
338 -235 1036 -718 1550 -1075 514 -356 1043 -723 1175 -815 132 -92 661 -459
1175 -815 514 -357 1031 -715 1149 -797 l214 -148 685 0 c410 0 682 4 676 9
-5 5 -135 96 -289 203 -934 648 -3819 2648 -4020 2788 -132 92 -798 554 -1480
1027 -682 473 -1460 1013 -1730 1200 -269 187 -695 481 -945 655 -250 173
-738 512 -1085 752 -346 241 -716 497 -822 569 -106 73 -192 135 -193 138 0 4
316 225 703 491 1235 853 2944 2032 3547 2448 906 625 2511 1732 3290 2270
388 267 1193 823 1790 1235 597 412 1124 776 1173 809 67 46 87 65 87 83 l0
23 -658 0 -659 0 -2654 -1831z"/>
<path d="M16190 11020 c-1047 -85 -1707 -521 -2026 -1337 -135 -345 -196 -725
-197 -1223 0 -441 39 -751 134 -1079 285 -979 1077 -1491 2307 -1491 590 0
1073 136 1429 402 85 63 248 220 285 274 13 19 25 34 28 34 3 0 21 -138 40
-307 l35 -308 263 -3 262 -2 0 1305 0 1305 -1225 0 -1225 0 0 -295 0 -295 875
0 875 0 0 -124 c0 -401 -114 -741 -324 -963 -247 -262 -579 -389 -1111 -423
-93 -6 -226 -9 -295 -5 -534 27 -910 164 -1175 430 -255 256 -400 606 -456
1105 -17 151 -18 697 -1 848 56 502 203 855 467 1117 227 227 510 357 915 422
146 23 671 26 815 5 323 -48 559 -134 744 -272 240 -179 371 -426 403 -762
l12 -128 349 0 350 0 -7 131 c-23 440 -172 790 -456 1069 -312 308 -774 495
-1385 560 -134 14 -574 21 -705 10z"/>
<path d="M22885 11019 c-936 -69 -1591 -456 -1933 -1144 -131 -262 -211 -546
-259 -910 -15 -115 -18 -209 -18 -520 0 -413 12 -547 71 -835 124 -602 407
-1045 854 -1340 234 -154 561 -276 885 -330 544 -90 1146 -56 1560 90 291 103
559 279 736 484 40 47 74 84 75 83 1 -1 16 -126 33 -277 18 -151 34 -290 37
-307 l6 -33 259 0 259 0 0 1305 0 1305 -1225 0 -1225 0 0 -295 0 -295 878 0
877 0 -6 -187 c-24 -678 -326 -1085 -929 -1248 -361 -97 -887 -108 -1248 -25
-647 149 -1013 547 -1147 1247 -30 157 -37 252 -42 580 -5 357 1 488 33 683
99 605 399 1025 872 1223 131 55 210 79 372 111 183 37 294 46 537 46 575 0
966 -119 1232 -374 92 -89 148 -167 205 -287 64 -132 106 -314 106 -456 l0
-63 353 0 352 0 -7 138 c-7 150 -42 346 -84 472 -13 41 -51 129 -84 195 -282
569 -905 903 -1800 965 -166 11 -424 11 -585 -1z"/>
<path d="M1322 8460 l3 -2481 334 -2 333 -2 -6 2025 c-4 1114 -9 2059 -12
2100 -5 75 -5 75 20 76 16 1 27 -4 30 -15 3 -9 44 -155 90 -326 117 -424 155
-542 368 -1135 102 -283 296 -823 431 -1200 136 -377 313 -872 395 -1100 l149
-415 299 -3 300 -2 587 1637 c551 1538 595 1665 716 2078 71 242 130 449 132
459 3 13 13 20 33 21 l29 1 -8 -276 c-4 -151 -11 -381 -14 -510 -4 -129 -8
-949 -9 -1822 l-3 -1587 346 -3 345 -3 0 2483 0 2482 -530 0 c-291 0 -530 -2
-530 -4 0 -2 -120 -346 -266 -763 -146 -417 -360 -1028 -476 -1358 -115 -330
-248 -708 -294 -840 -96 -273 -193 -601 -262 -883 -45 -185 -48 -193 -70 -190
-21 3 -27 16 -57 133 -69 267 -192 645 -459 1407 -253 724 -452 1291 -754
2153 l-120 340 -536 3 -536 2 2 -2480z"/>
<path d="M9733 10808 c-60 -153 -900 -2281 -1081 -2738 -191 -482 -687 -1739
-758 -1918 -35 -90 -64 -166 -64 -170 0 -4 159 -6 353 -4 l354 2 233 603 c129
331 238 608 243 615 7 9 262 12 1212 12 l1203 0 120 -302 c65 -167 174 -444
242 -615 l123 -313 373 -2 c206 -2 374 -2 374 -1 0 2 -483 1223 -844 2133
-109 272 -255 641 -326 820 -71 179 -272 687 -448 1130 -175 443 -325 822
-333 843 l-13 37 -456 0 -455 0 -52 -132z m622 -783 c174 -498 199 -563 746
-1981 49 -127 89 -236 89 -242 0 -9 -245 -12 -975 -12 -536 0 -975 2 -975 5 0
2 97 253 216 557 358 916 372 953 471 1223 52 143 132 368 178 500 46 132 87
248 90 258 5 11 16 17 28 15 17 -3 38 -54 132 -323z"/>
<path d="M27590 8458 l0 -2483 340 0 340 0 0 2483 0 2482 -340 0 -340 0 0
-2482z"/>
<path d="M30460 8458 l0 -2483 1935 3 1935 2 0 295 0 295 -1590 0 -1590 0 0
825 0 825 1405 0 1405 0 0 295 0 295 -1405 0 -1405 0 0 770 0 770 1565 0 1565
0 0 295 0 295 -1910 0 -1910 0 0 -2482z"/>
<path d="M38400 10935 c0 -3 233 -317 1310 -1760 151 -203 313 -420 358 -482
l83 -112 -937 -1258 c-516 -692 -952 -1278 -970 -1303 l-32 -45 410 2 411 3
181 247 c100 137 442 605 761 1042 318 436 585 796 593 798 7 3 20 -1 29 -9 8
-9 355 -480 771 -1047 l757 -1031 423 -3 c283 -1 421 1 418 8 -3 9 -463 631
-1335 1803 -492 663 -591 797 -591 802 0 3 156 217 348 475 191 259 569 772
841 1140 272 369 506 685 519 703 l24 32 -403 0 -404 -1 -665 -919 c-520 -719
-670 -919 -687 -919 -17 -1 -155 182 -695 919 l-673 919 -422 1 c-233 0 -423
-2 -423 -5z"/>
<path d="M44600 9383 c0 -1489 5 -1779 31 -1956 68 -469 226 -803 502 -1062
334 -315 860 -479 1517 -474 455 4 818 77 1135 229 427 206 714 587 829 1101
63 281 60 182 63 2032 l4 1687 -340 0 -340 0 -4 -1682 c-2 -1548 -4 -1691 -20
-1778 -35 -190 -98 -357 -186 -490 -91 -138 -280 -296 -443 -369 -422 -189
-1057 -183 -1448 14 -162 81 -314 212 -403 348 -85 128 -150 303 -184 492 -15
80 -17 277 -20 1778 l-4 1687 -344 0 -345 0 0 -1557z"/>
</g>
</svg>
