<svg width="49" height="49" viewBox="0 0 49 49" fill="none" xmlns="http://www.w3.org/2000/svg">
<path d="M31.296 17.4572C32.0062 17.4572 32.6999 17.5162 33.3842 17.6006C32.147 12.1672 26.4402 8.05742 19.578 8.05742C11.8107 8.05742 5.51562 13.3188 5.51562 19.8072C5.51562 23.548 7.62038 26.867 10.885 29.0144L9.03108 32.7321L14.0815 30.5631C15.1645 30.9487 16.2898 31.2663 17.4919 31.4141C17.3276 30.6971 17.2343 29.962 17.2343 29.2075C17.2343 22.7284 23.5408 17.4572 31.296 17.4572ZM24.2653 13.3445C25.2358 13.3445 26.0229 14.134 26.0229 15.1072C26.0229 16.0807 25.2359 16.8696 24.2653 16.8696C23.2943 16.8696 22.5075 16.0807 22.5075 15.1072C22.5075 14.1339 23.2943 13.3445 24.2653 13.3445ZM14.8904 16.8696C13.9197 16.8696 13.1327 16.0807 13.1327 15.1072C13.1327 14.134 13.9198 13.3445 14.8904 13.3445C15.861 13.3445 16.6482 14.134 16.6482 15.1072C16.6481 16.0807 15.8609 16.8696 14.8904 16.8696Z" fill="#EAE7DC"/>
<path d="M43.0146 29.2074C43.0146 24.0159 37.7666 19.8072 31.296 19.8072C24.8251 19.8072 19.578 24.0159 19.578 29.2074C19.578 34.3985 24.8251 38.6073 31.296 38.6073C32.3602 38.6073 33.3724 38.4569 34.3546 38.2433L40.671 40.9571L38.4864 36.5795C41.2241 34.8589 43.0146 32.2131 43.0146 29.2074ZM27.7806 28.6198C26.8101 28.6198 26.0228 27.8306 26.0228 26.8569C26.0228 25.8837 26.81 25.0948 27.7806 25.0948C28.7515 25.0948 29.5383 25.8841 29.5383 26.8569C29.5383 27.8307 28.7514 28.6198 27.7806 28.6198ZM34.8116 28.6198C33.8405 28.6198 33.0539 27.8306 33.0539 26.8569C33.0539 25.8837 33.8404 25.0948 34.8116 25.0948C35.7825 25.0948 36.5694 25.8841 36.5694 26.8569C36.5694 27.8307 35.7825 28.6198 34.8116 28.6198Z" fill="#EAE7DC"/>
</svg>
